PathFileType	4	(X/Y/Z)	39_2_62_p0_0-240_filt_butterworth.trc
DataRate	CameraRate	NumFrames	NumMarkers	Units	OrigDataRate	OrigDataStartFrame	OrigNumFrames
49.0	49.0	6	27	m	49.0	120	240
Frame#	Time	RHip			RKnee			RAnkle			RBigToe			RSmallToe			RHeel			LHip			LKnee			LAnkle			LBigToe			LSmallToe			LHeel			Neck			Head			Nose			RShoulder			RElbow			RWrist			RThumb			RIndex			RPinky			LShoulder			LElbow			LWrist			LThumb			LIndex			LPinky			
		X1	Y1	Z1	X2	Y2	Z2	X3	Y3	Z3	X4	Y4	Z4	X5	Y5	Z5	X6	Y6	Z6	X7	Y7	Z7	X8	Y8	Z8	X9	Y9	Z9	X10	Y10	Z10	X11	Y11	Z11	X12	Y12	Z12	X13	Y13	Z13	X14	Y14	Z14	X15	Y15	Z15	X16	Y16	Z16	X17	Y17	Z17	X18	Y18	Z18	X19	Y19	Z19	X20	Y20	Z20	X21	Y21	Z21	X22	Y22	Z22	X23	Y23	Z23	X24	Y24	Z24	X25	Y25	Z25	X26	Y26	Z26	X27	Y27	Z27	
120	2.4489795918367347	0.3267049163194159	0.6892280094757384	0.8274346879259499	0.25080435203193097	0.30767704463463164	0.7820373591497617	0.23003859834220355	-0.09544510784906925	0.8267786435794537	0.21590840074518589	-0.10345435679274133	0.672889002589168	0.2653983836656251	-0.1176073774768569	0.6916205174969824	0.20024479053621216	-0.1820928205942811	0.9185189322353209	0.12361992179231038	0.7194877607719677	0.7918817553009321	0.12155601892362168	0.3257464966770021	0.7568412423768838	0.04390713972947365	-0.09156821577117022	0.8152270621477397	0.06296837867888416	-0.06030435052362082	0.6392219194642497	0.00939541637530113	-0.07983226104159905	0.6788374366208993	0.04865212819780898	-0.15931189204306928	0.8518479378108242	0.23025355201493042	1.2269150137014293	0.9372628757680666	0.25758332552879515	1.490796257582204	0.9009415995214782	0.2666432769202618	1.347086517357374	0.8494239858301483	0.3901896972799965	1.1478989925719278	0.9911918764703562	0.4517617062157542	0.9447142073519191	0.8480512413142258	0.4698204572325884	1.1123502993896761	0.6761922965120963	0.4738790813901663	1.2202036487033046	0.6308823266813746	0.48972188036490605	1.2195577630502865	0.6074524684666003	0.4866703548857998	1.1853421963750872	0.5429620864345137	0.08466895962118293	1.1861246321986012	0.9120358675497399	0.15296228836211595	1.1213664184208592	0.6467710339035728	0.3469960130943257	1.1654616482978604	0.4501044546435784	0.3988042585136289	1.1895311516324172	0.41050929600195746	0.4111808742342311	1.1925481880515825	0.3805911684274966	0.42160139414876074	1.1546356420240729	0.3955451937068868	
121	2.4693877551020407	0.3257834370041822	0.6894489984473111	0.8270950323199536	0.2500499378211447	0.30785339746629153	0.7825014868875572	0.22991316316038599	-0.09502568914232677	0.8261957150767147	0.21593683852828882	-0.10341957137996424	0.6728832181994594	0.266674279934902	-0.1164755914524597	0.6909990615436854	0.20051222037612282	-0.18252140293981664	0.918198606583657	0.1219902600863997	0.7199190912740109	0.7911496655273493	0.12108185971723204	0.3260807808565581	0.7560985165814207	0.043607559945896865	-0.09100376673572669	0.8150670485982652	0.06291955892510971	-0.05924216736715229	0.6396735319199993	0.009094695875411729	-0.07997894348340207	0.6793729319690894	0.048399567263919106	-0.15898689584675366	0.8515386153666179	0.22922299470825677	1.2262598066600505	0.9400128554247953	0.2572453873849836	1.4923246779377612	0.8988570330199193	0.265044201388448	1.3471464345525999	0.8493804582976413	0.38936602802443954	1.1472096673764993	0.9918220482847713	0.45016786136006637	0.944426194990106	0.8449658490511677	0.4635152769796964	1.1154888080318508	0.6682776312020823	0.464129445916052	1.2207552050915647	0.6262393746770224	0.4790931164909628	1.2197385447071274	0.6026280631462894	0.4767428750037871	1.188500277079348	0.5322204278291308	0.08534147331592395	1.1870493886016145	0.9149981683123929	0.14852953168219124	1.1229481927034983	0.649010959938974	0.3364142100323124	1.1737062113472783	0.44869196087125235	0.39215233486053824	1.1968808434047267	0.4144399832115897	0.40244022641650457	1.201597054668693	0.3765984551962513	0.41264018997663743	1.163218572439991	0.3949905801958928	
122	2.489795918367347	0.324826086126658	0.6899427157644408	0.8263722597072843	0.24925921927596742	0.3082732384085204	0.7826008564552224	0.2299451854487626	-0.09445462573412464	0.825407035181047	0.2159469768785798	-0.10338336053600268	0.6728843771454687	0.2675402511013105	-0.114463237845427	0.689690285749975	0.20091562605386662	-0.18294210083355486	0.9178535398860354	0.12017662660019948	0.720251142180261	0.7904365174041208	0.12054807858188323	0.3261445153749923	0.7557030143841237	0.04337422367516899	-0.0905622916399786	0.8148930838782551	0.06293523857071387	-0.0590334416824153	0.6406577470329369	0.008598735458345542	-0.08051060811997421	0.6803195670019402	0.048195023093732775	-0.15870502755964383	0.8512248634361584	0.22832966787152648	1.225726783553918	0.9422205235457376	0.25695032105015025	1.4938413435617282	0.8962981118695774	0.2632230984957351	1.347217580705905	0.8492987862330388	0.38817985088834717	1.1470097854609886	0.9911102735286643	0.4490652295097286	0.9450868314233178	0.8423140700777059	0.45785948105502644	1.1188578607417365	0.6613192513620787	0.45230993382820445	1.2232979419368315	0.6167503239112893	0.46588102349828203	1.2207580451890636	0.594551366665461	0.46432654391447126	1.1920931034270044	0.5220066699488906	0.08556485475226192	1.1883841915039342	0.9162375796353048	0.14272765412253885	1.1233170347492551	0.6538475806887629	0.3247015118143947	1.1800676045242078	0.4493527854754771	0.38389691020178296	1.2059869072202312	0.41736076290439567	0.39173658237168335	1.2116871141106014	0.37626596450606214	0.39939557373364654	1.171078938669643	0.3959760203658205	
123	2.510204081632653	0.3238441977069398	0.6906242325249606	0.8253112205170867	0.24855205167537464	0.30889620448367117	0.7823465190626679	0.23012101327735796	-0.09375013825019528	0.8244449641758135	0.2159300624223353	-0.10336165125621419	0.6728982902290522	0.2678492523624829	-0.11162066657456143	0.6874967929557733	0.20143019261099163	-0.18327492335123954	0.9175218635085876	0.11812413992864955	0.7203861200211461	0.789860954652795	0.11989984047045628	0.32616140660166626	0.755612257424904	0.04315267559052675	-0.09013461444986398	0.8146828747997071	0.0629190075065437	-0.05927425715559956	0.6416285166186284	0.008145481386393595	-0.08148561597174897	0.6811203283031347	0.04801924253949225	-0.15841772159848921	0.8507738379753361	0.22773346424248342	1.2254346700694796	0.9434967165134951	0.2566033975105799	1.4951330456020013	0.8937441580839038	0.2612353079979577	1.3472721791058562	0.8493184462729053	0.3874005285441228	1.1465343140988689	0.9888992539386148	0.44808133252636007	0.9465065761989739	0.8391973197779308	0.45205047814538774	1.1224101988401753	0.6551781188844648	0.4395118632886896	1.227813146438201	0.6058325321170256	0.4512468158407242	1.2227865994042815	0.5852543206531355	0.4507701859987362	1.1957708815529402	0.514891023356405	0.0852923361415025	1.1898014240354056	0.9160863341713114	0.1354713012795989	1.1224785084087427	0.661132774689491	0.31223025333526644	1.184687953522841	0.45129643714820555	0.37375524026131624	1.2156204967446111	0.41872118394989943	0.3793388853994403	1.2217598235618665	0.37973246360392787	0.3833053365018877	1.1778839394564533	0.398357836934879	
124	2.53061224489796	0.32288638724847035	0.6914600284028363	0.8239419098675674	0.24795991246571567	0.30966006346460384	0.7817918085532878	0.2304305366442424	-0.09293353965973479	0.8233406564720712	0.21589423672478783	-0.1033543786338366	0.6729377854361044	0.26751476170827004	-0.10840722847375694	0.6848307487286542	0.2020369674247561	-0.18347650511607258	0.9172320533392958	0.11585888575383604	0.720358795701089	0.7893567324332773	0.11914511171365195	0.32619599556313755	0.7558280604763646	0.042920025636973176	-0.08960753398454777	0.8144487734143495	0.06283303899493708	-0.059551131357697115	0.6421068469467708	0.007858506977060122	-0.08281736850790579	0.6814893421474919	0.04787589497089584	-0.15812457375603933	0.8502160170302412	0.22750608325908625	1.2253774714634145	0.9437159524395109	0.25610635205840365	1.4960705853964578	0.8921316346563841	0.2592522265313726	1.3472761343016215	0.8496089557708388	0.3877255592413992	1.1455804711964273	0.9851895129836568	0.4468720131361117	0.948299129336722	0.8349368007443575	0.4450003498879057	1.1257049829678119	0.650246073823288	0.4264706612821404	1.2331561946604255	0.5977038845166966	0.4365874652187578	1.2255617606683626	0.5764963271246462	0.43710905286323787	1.1988720247253082	0.5125108633641067	0.08471070424243221	1.190827299820761	0.9160249917578804	0.12693171177036694	1.120867589298357	0.6700864415256543	0.2993390981825399	1.1879042174646952	0.45420139496243317	0.3616676645542511	1.2247021752208205	0.42017756718792176	0.3658754282655652	1.231254383162749	0.3855422917346212	0.3663509689804455	1.1838338728023312	0.401155540217802	
125	2.5510204081632653	0.32201087923352517	0.6924440887045007	0.8222859396613817	0.24745199616010988	0.31054257819474174	0.7809822137755399	0.23086344093390984	-0.09203023553059103	0.8221252750612338	0.2158593217867925	-0.10334910705492992	0.6730083700859456	0.266678871142024	-0.1052744104145668	0.6821717357464051	0.20272116946864197	-0.18352859940380173	0.9169933422689391	0.11344773082093733	0.7202551231851365	0.7889136109953871	0.11834342641670728	0.3261877811146257	0.7563863498066385	0.042671717100911916	-0.0890491013983114	0.8142021370118616	0.06266590220684788	-0.05942827466155999	0.6417174617044008	0.007738779607885192	-0.08400925581640836	0.6815306733664733	0.04780107632811146	-0.15794631005117335	0.8497651948817236	0.2275391618442199	1.2254094104216289	0.9432880733090162	0.2554350154250522	1.49659658788919	0.8922002606740391	0.25733979880191943	1.347259338763286	0.8500386476786727	0.3888666367880778	1.1448129012399408	0.9797463272585016	0.4451564104338857	0.9499966717261656	0.8293436566445553	0.4357966722823408	1.1281395225774358	0.6474355032498429	0.41324497860687526	1.237622478713358	0.5945393332431743	0.42275742813621436	1.2282625374469673	0.569350581267122	0.423480894642065	1.2008638031444052	0.514800832449975	0.08406154244007827	1.1911799244556647	0.9173749054738327	0.11787912509975595	1.1190634628924556	0.6799260120423355	0.28664850729059993	1.1900870335907408	0.45827384442800706	0.3475612342800175	1.232896014676023	0.42312083078877416	0.35152555116607825	1.240097070427091	0.39143068787936364	0.34953242819705355	1.1896920540548157	0.4027088655459054	
